<svg width="72" height="12" viewBox="0 0 72 12" fill="none" xmlns="http://www.w3.org/2000/svg">
<g id="Texto">
<g id="AluraGeek">
<path d="M44.7733 9.92003C43.9684 10.7134 43.031 11.11 41.961 11.11C41.2981 11.11 40.6732 10.9794 40.0861 10.718C39.5085 10.4567 39.0019 10.0974 38.5663 9.64003C38.1402 9.18269 37.7993 8.64603 37.5436 8.03002C37.2974 7.40469 37.1743 6.73269 37.1743 6.01402C37.1743 5.33269 37.2974 4.69336 37.5436 4.09602C37.7993 3.48936 38.1449 2.96202 38.5805 2.51402C39.0255 2.05669 39.5463 1.69736 40.1429 1.43602C40.7395 1.16536 41.3881 1.03002 42.0888 1.03002C43.0357 1.03002 43.8453 1.22602 44.5177 1.61802C45.1994 2.01002 45.7108 2.53736 46.0517 3.20002L44.5887 4.26402C44.333 3.76936 43.9732 3.39136 43.5092 3.13002C43.0547 2.86869 42.5575 2.73802 42.0178 2.73802C41.5917 2.73802 41.1987 2.82669 40.8389 3.00402C40.4885 3.18136 40.1855 3.42402 39.9298 3.73202C39.6836 4.04002 39.4895 4.39469 39.3475 4.79602C39.2149 5.19736 39.1486 5.62202 39.1486 6.07002C39.1486 6.53669 39.2244 6.97536 39.3759 7.38602C39.5274 7.78736 39.7357 8.13736 40.0009 8.43603C40.266 8.73469 40.5785 8.97269 40.9383 9.15003C41.3076 9.31803 41.7053 9.40203 42.1314 9.40203C43.1067 9.40203 43.9874 8.94936 44.7733 8.04403V7.34403H42.7422V5.93002H46.3925V11.04H44.7733V9.92003Z" fill="#464646"/>
<path d="M51.3299 11.18C50.7333 11.18 50.1936 11.082 49.7107 10.886C49.2277 10.6807 48.8158 10.4054 48.4749 10.06C48.1341 9.71469 47.8689 9.31336 47.6795 8.85603C47.4996 8.39869 47.4097 7.91803 47.4097 7.41403C47.4097 6.89136 47.4996 6.40136 47.6795 5.94402C47.8595 5.47736 48.1199 5.07136 48.4607 4.72602C48.8016 4.37136 49.2135 4.09136 49.6965 3.88602C50.1889 3.68069 50.7381 3.57802 51.3441 3.57802C51.9501 3.57802 52.4899 3.68069 52.9633 3.88602C53.4463 4.09136 53.8534 4.36669 54.1849 4.71202C54.5257 5.05736 54.7814 5.45869 54.9519 5.91602C55.1318 6.37336 55.2217 6.84936 55.2217 7.34403C55.2217 7.46536 55.217 7.58202 55.2075 7.69402C55.2075 7.80602 55.1981 7.89936 55.1791 7.97403H49.4266C49.455 8.26336 49.526 8.52002 49.6397 8.74403C49.7533 8.96803 49.9001 9.15936 50.08 9.31803C50.2599 9.47669 50.4635 9.59803 50.6907 9.68203C50.918 9.76603 51.1547 9.80803 51.4009 9.80803C51.7797 9.80803 52.1348 9.71936 52.4662 9.54203C52.8071 9.35536 53.0391 9.11269 53.1622 8.81403L54.7956 9.26203C54.521 9.82203 54.0807 10.284 53.4747 10.648C52.8781 11.0027 52.1632 11.18 51.3299 11.18ZM53.2616 6.75602C53.2143 6.20536 53.0059 5.76669 52.6366 5.44002C52.2768 5.10402 51.8365 4.93602 51.3157 4.93602C51.06 4.93602 50.8186 4.98269 50.5913 5.07602C50.3735 5.16002 50.1794 5.28136 50.009 5.44002C49.8385 5.59869 49.6965 5.79002 49.5828 6.01402C49.4787 6.23802 49.4171 6.48536 49.3982 6.75602H53.2616Z" fill="#464646"/>
<path d="M59.8327 11.18C59.2362 11.18 58.6964 11.082 58.2135 10.886C57.7306 10.6807 57.3187 10.4054 56.9778 10.06C56.6369 9.71469 56.3718 9.31336 56.1824 8.85603C56.0025 8.39869 55.9125 7.91803 55.9125 7.41403C55.9125 6.89136 56.0025 6.40136 56.1824 5.94402C56.3623 5.47736 56.6227 5.07136 56.9636 4.72602C57.3045 4.37136 57.7164 4.09136 58.1993 3.88602C58.6917 3.68069 59.2409 3.57802 59.8469 3.57802C60.453 3.57802 60.9927 3.68069 61.4662 3.88602C61.9491 4.09136 62.3563 4.36669 62.6877 4.71202C63.0286 5.05736 63.2842 5.45869 63.4547 5.91602C63.6346 6.37336 63.7246 6.84936 63.7246 7.34403C63.7246 7.46536 63.7198 7.58202 63.7104 7.69402C63.7104 7.80602 63.7009 7.89936 63.6819 7.97403H57.9294C57.9578 8.26336 58.0289 8.52002 58.1425 8.74403C58.2561 8.96803 58.4029 9.15936 58.5828 9.31803C58.7627 9.47669 58.9663 9.59803 59.1936 9.68203C59.4208 9.76603 59.6576 9.80803 59.9038 9.80803C60.2825 9.80803 60.6376 9.71936 60.969 9.54203C61.3099 9.35536 61.5419 9.11269 61.665 8.81403L63.2984 9.26203C63.0238 9.82203 62.5835 10.284 61.9775 10.648C61.3809 11.0027 60.666 11.18 59.8327 11.18ZM61.7644 6.75602C61.7171 6.20536 61.5088 5.76669 61.1395 5.44002C60.7796 5.10402 60.3393 4.93602 59.8185 4.93602C59.5629 4.93602 59.3214 4.98269 59.0941 5.07602C58.8763 5.16002 58.6822 5.28136 58.5118 5.44002C58.3413 5.59869 58.1993 5.79002 58.0857 6.01402C57.9815 6.23802 57.92 6.48536 57.901 6.75602H61.7644Z" fill="#464646"/>
<path d="M69.969 11.04L67.81 7.86203L66.7874 8.85603V11.04H64.8841V0.820023H66.7874V7.02202L69.7701 3.71802H71.8013L69.0315 6.82602L72.0001 11.04H69.969Z" fill="#464646"/>
</g>
<g id="AluraGeek_2">
<path d="M4.25681 1.10002H5.98967L9.82468 11.04H7.80774L6.8703 8.56203H3.34777L2.42452 11.04H0.407593L4.25681 1.10002ZM6.5152 7.20402L5.12324 3.29802L3.67445 7.20402H6.5152Z" fill="#2A7AE4"/>
<path d="M10.7319 0.820023H12.6352V8.68803C12.6352 8.95869 12.7015 9.16869 12.8341 9.31803C12.9667 9.46736 13.156 9.54203 13.4022 9.54203C13.5159 9.54203 13.639 9.52336 13.7715 9.48603C13.9136 9.44869 14.0461 9.40203 14.1692 9.34603L14.4249 10.774C14.1692 10.8954 13.871 10.9887 13.5301 11.054C13.1892 11.1194 12.8814 11.152 12.6068 11.152C12.0103 11.152 11.5463 10.998 11.2149 10.69C10.8929 10.3727 10.7319 9.92469 10.7319 9.34603V0.820023Z" fill="#2A7AE4"/>
<path d="M17.5268 11.18C16.7598 11.18 16.1774 10.9374 15.7797 10.452C15.382 9.96669 15.1831 9.24803 15.1831 8.29603V3.70402H17.0865V7.89002C17.0865 9.01936 17.4984 9.58403 18.3222 9.58403C18.6915 9.58403 19.0466 9.47669 19.3875 9.26203C19.7378 9.03803 20.0219 8.70203 20.2397 8.25403V3.70402H22.143V8.88402C22.143 9.08003 22.1761 9.22003 22.2424 9.30403C22.3182 9.38803 22.4365 9.43469 22.5975 9.44403V11.04C22.4081 11.0774 22.2471 11.1007 22.1146 11.11C21.9915 11.1194 21.8778 11.124 21.7737 11.124C21.4328 11.124 21.1535 11.0494 20.9357 10.9C20.7273 10.7414 20.6042 10.5267 20.5664 10.256L20.5238 9.66803C20.1923 10.172 19.7662 10.55 19.2454 10.802C18.7246 11.054 18.1517 11.18 17.5268 11.18Z" fill="#2A7AE4"/>
<path d="M28.466 5.32802C27.8884 5.33736 27.3723 5.44936 26.9178 5.66402C26.4633 5.86936 26.1366 6.18202 25.9377 6.60202V11.04H24.0344V3.70402H25.7815V5.27202C25.914 5.02002 26.0703 4.79602 26.2502 4.60002C26.4301 4.39469 26.6242 4.21736 26.8326 4.06802C27.0409 3.91869 27.2492 3.80669 27.4575 3.73202C27.6753 3.64802 27.8836 3.60602 28.0825 3.60602C28.1866 3.60602 28.2624 3.60602 28.3097 3.60602C28.3666 3.60602 28.4186 3.61069 28.466 3.62002V5.32802Z" fill="#2A7AE4"/>
<path d="M31.4613 11.18C31.1015 11.18 30.7653 11.124 30.4528 11.012C30.1404 10.8907 29.8705 10.7274 29.6432 10.522C29.416 10.3074 29.2361 10.06 29.1035 9.78003C28.9804 9.50003 28.9188 9.19203 28.9188 8.85603C28.9188 8.51069 28.9946 8.19336 29.1461 7.90403C29.3071 7.60536 29.5249 7.35336 29.7995 7.14803C30.0835 6.94269 30.4197 6.78402 30.8079 6.67202C31.1962 6.55069 31.6223 6.49002 32.0863 6.49002C32.4177 6.49002 32.7396 6.51802 33.0521 6.57402C33.3741 6.63002 33.6582 6.70936 33.9043 6.81202V6.39202C33.9043 5.90669 33.7623 5.53336 33.4782 5.27202C33.2036 5.01069 32.7917 4.88002 32.2425 4.88002C31.8448 4.88002 31.4566 4.95002 31.0778 5.09002C30.699 5.23002 30.3108 5.43536 29.9131 5.70602L29.3307 4.51602C30.2871 3.89069 31.3193 3.57802 32.4272 3.57802C33.4972 3.57802 34.3257 3.83936 34.9128 4.36202C35.5094 4.87536 35.8077 5.62202 35.8077 6.60202V8.88402C35.8077 9.08003 35.8408 9.22003 35.9071 9.30403C35.9828 9.38803 36.1012 9.43469 36.2622 9.44403V11.04C35.9402 11.1054 35.6609 11.138 35.4242 11.138C35.0643 11.138 34.785 11.0587 34.5861 10.9C34.3967 10.7414 34.2784 10.5314 34.231 10.27L34.1884 9.86403C33.857 10.2934 33.4546 10.62 32.9811 10.844C32.5076 11.068 32.001 11.18 31.4613 11.18ZM32.001 9.80803C32.323 9.80803 32.626 9.75203 32.9101 9.64003C33.2036 9.52803 33.4309 9.37869 33.5919 9.19203C33.8002 9.03336 33.9043 8.85603 33.9043 8.66003V7.82002C33.6771 7.73602 33.4309 7.67069 33.1658 7.62402C32.9006 7.56803 32.645 7.54003 32.3988 7.54003C31.9064 7.54003 31.5039 7.65203 31.1914 7.87603C30.879 8.09069 30.7227 8.36603 30.7227 8.70203C30.7227 9.01936 30.8458 9.28536 31.092 9.50003C31.3382 9.70536 31.6412 9.80803 32.001 9.80803Z" fill="#2A7AE4"/>
</g>
</g>
</svg>
